<svg xmlns="http://www.w3.org/2000/svg" xmlns:xlink="http://www.w3.org/1999/xlink" viewBox="0 0 112.09 93.44"><defs><style>.cls-1{isolation:isolate;}.cls-2{fill:url(#linear-gradient);}.cls-3{fill:url(#linear-gradient-2);}.cls-4{mix-blend-mode:overlay;fill:url(#linear-gradient-3);}.cls-5,.cls-7{fill:none;}.cls-5,.cls-6,.cls-7{stroke:#46247d;stroke-width:1.5px;}.cls-5,.cls-6{stroke-miterlimit:10;}.cls-6{fill:#dcc7ff;}.cls-7{stroke-linecap:round;stroke-linejoin:round;}</style><linearGradient id="linear-gradient" x1="-19.37" y1="82.18" x2="76.34" y2="37.18" gradientUnits="userSpaceOnUse"><stop offset="0" stop-color="#def7fc"/><stop offset="1" stop-color="#ffedf7"/></linearGradient><linearGradient id="linear-gradient-2" x1="0.75" y1="10.8" x2="111.34" y2="10.8" gradientUnits="userSpaceOnUse"><stop offset="0" stop-color="#7d4efc"/><stop offset="0.36" stop-color="#af6eed"/><stop offset="1" stop-color="#ffa2d6"/></linearGradient><linearGradient id="linear-gradient-3" x1="0.75" y1="3.7" x2="111.34" y2="3.7" gradientUnits="userSpaceOnUse"><stop offset="0" stop-color="#fff"/><stop offset="1" stop-color="#fff" stop-opacity="0.3"/></linearGradient></defs><g class="cls-1"><g id="图层_2" data-name="图层 2"><g id="OBJECTS"><rect class="cls-2" x="0.75" y="0.75" width="110.59" height="91.94" rx="3.6"/><path class="cls-3" d="M107.75.75H4.35a3.6,3.6,0,0,0-3.6,3.6v16.5H111.34V4.35A3.6,3.6,0,0,0,107.75.75Z"/><path class="cls-4" d="M107.75.75H4.35a3.6,3.6,0,0,0-3.6,3.6V6.66a3.6,3.6,0,0,1,3.6-3.6h103.4a3.6,3.6,0,0,1,3.59,3.6V4.35A3.6,3.6,0,0,0,107.75.75Z"/><rect class="cls-5" x="0.75" y="0.75" width="110.59" height="91.94" rx="3.6"/><line class="cls-5" x1="0.75" y1="20.85" x2="111.34" y2="20.85"/><rect class="cls-6" x="61.02" y="5.37" width="10.86" height="10.86" rx="1.17"/><line class="cls-7" x1="64.12" y1="13.64" x2="68.77" y2="13.64"/><rect class="cls-6" x="76.16" y="5.37" width="10.86" height="10.86" rx="1.17"/><rect class="cls-7" x="79.27" y="9.9" width="4.65" height="3.8"/><line class="cls-7" x1="83.92" y1="7.9" x2="79.27" y2="7.9"/><rect class="cls-6" x="91.31" y="5.37" width="10.86" height="10.86" rx="1.17"/><line class="cls-7" x1="94.42" y1="8.35" x2="99.07" y2="13.25"/><line class="cls-7" x1="99.07" y1="8.35" x2="94.42" y2="13.25"/></g></g></g></svg>