<svg xmlns="http://www.w3.org/2000/svg" viewBox="0 0 33.29 56.33"><defs><style>.cls-1{fill:#fff5f7;}.cls-2{fill:#46247d;}</style></defs><g id="图层_2" data-name="图层 2"><g id="OBJECTS"><rect class="cls-1" x="5.12" y="51.21" width="23.04" height="2.56"/><polygon class="cls-1" points="20.48 25.6 20.48 23.04 23.04 23.04 23.04 20.48 25.6 20.48 25.6 17.92 28.16 17.92 28.16 7.68 5.12 7.68 5.12 17.92 7.68 17.92 7.68 20.48 10.24 20.48 10.24 23.04 12.8 23.04 12.8 25.6 15.36 25.6 15.36 30.73 12.8 30.73 12.8 33.28 10.24 33.28 10.24 35.85 7.68 35.85 7.68 38.41 5.12 38.41 5.12 48.65 28.16 48.65 28.16 38.41 25.6 38.41 25.6 35.85 23.04 35.85 23.04 33.28 20.48 33.28 20.48 30.73 17.92 30.73 17.92 25.6 20.48 25.6"/><rect class="cls-1" x="5.12" y="2.56" width="23.04" height="2.56"/><rect class="cls-2" x="10.24" y="12.8" width="2.56" height="2.56"/><rect class="cls-2" x="15.36" y="12.8" width="2.56" height="2.56"/><rect class="cls-2" x="20.48" y="12.8" width="2.56" height="2.56"/><rect class="cls-2" x="12.8" y="15.36" width="2.56" height="2.56"/><rect class="cls-2" x="15.36" y="17.92" width="2.56" height="2.56"/><rect class="cls-2" x="15.36" y="23.04" width="2.56" height="2.56"/><rect class="cls-2" x="17.92" y="15.36" width="2.56" height="2.56"/><path class="cls-2" d="M0,0V7.68H2.56v12.8H5.12V23H7.68V25.6h2.56v5.13H7.68v2.56H5.12v2.56H2.56v12.8H0v7.68H33.29V48.65H30.72V35.85H28.17V33.29H25.6V30.73H23V25.6H25.6V23h2.57V20.48h2.55V7.68h2.57V0ZM28.17,53.77h-23V51.21H28.17Zm0-35.85H25.6v2.56H23V23H20.48V25.6H17.92v5.13h2.56v2.56H23v2.56H25.6v2.56h2.57V48.65h-23V38.41H7.68V35.85h2.56V33.29H12.8V30.73h2.56V25.6H12.8V23H10.24V20.48H7.68V17.92H5.12V7.68H28.17Zm0-12.8h-23V2.56H28.17Z"/><rect class="cls-2" x="15.36" y="33.29" width="2.56" height="2.56"/></g></g></svg>