<svg xmlns="http://www.w3.org/2000/svg" xmlns:xlink="http://www.w3.org/1999/xlink" viewBox="0 0 92.8 61.87"><defs><style>.cls-1{fill:#2d174f;}.cls-2{fill:url(#linear-gradient);}.cls-3{fill:#46247d;}</style><linearGradient id="linear-gradient" x1="80.71" y1="37.71" x2="43.21" y2="17.71" gradientUnits="userSpaceOnUse"><stop offset="0" stop-color="#def7fc"/><stop offset="1" stop-color="#ffedf7"/></linearGradient></defs><g id="图层_2" data-name="图层 2"><g id="OBJECTS"><polygon class="cls-1" points="70.31 11.25 67.49 8.44 64.68 11.25 61.87 8.44 59.06 11.25 56.25 8.44 53.43 11.25 50.62 8.44 47.81 11.25 44.99 8.44 42.18 11.25 39.37 8.44 36.56 11.25 33.75 8.44 30.93 11.25 28.12 8.44 25.31 11.25 22.5 8.44 19.69 11.25 16.87 8.44 14.06 11.25 11.25 8.44 8.44 11.25 5.63 8.44 2.81 11.25 53.43 61.87 56.24 59.06 53.43 56.25 56.25 53.44 53.43 50.62 56.24 47.81 53.43 45 59.06 39.38 64.68 45 67.49 42.19 73.12 47.81 75.93 45 81.56 50.62 84.37 47.81 87.18 50.62 92.8 45 89.99 42.19 92.8 39.38 87.18 33.75 84.37 36.56 78.74 30.94 75.93 33.75 70.31 28.13 67.49 30.94 61.87 25.32 75.93 11.25 73.12 8.44 70.31 11.25 70.31 11.25"/><polygon class="cls-2" points="59.06 5.63 56.24 2.82 53.43 5.63 50.62 2.82 47.81 5.63 44.99 2.82 42.18 5.63 39.37 2.81 36.56 5.63 33.74 2.82 30.93 5.63 28.12 2.82 25.31 5.63 22.5 2.82 19.69 5.63 16.88 2.81 14.06 5.63 11.25 2.81 8.44 5.63 47.81 45 50.62 42.19 47.81 39.37 50.62 36.56 47.81 33.75 50.62 30.94 47.81 28.13 50.62 25.31 56.24 30.94 59.05 28.13 64.68 33.75 67.49 30.94 73.12 36.56 75.93 33.75 81.55 39.38 87.18 33.75 81.55 28.12 78.74 30.94 73.12 25.31 70.31 28.13 64.68 22.5 61.87 25.31 53.43 16.88 64.68 5.63 61.87 2.82 59.06 5.63 59.06 5.63"/><polygon class="cls-3" points="45 42.19 8.44 5.63 11.25 2.81 8.44 0 5.63 2.81 2.81 0 0 2.82 50.62 53.44 53.43 50.62 50.62 47.81 53.43 45 50.62 42.19 47.81 45 45 42.19 45 42.19"/><polygon class="cls-3" points="50.62 42.19 53.43 39.37 50.62 36.56 47.81 39.37 50.62 42.19 50.62 42.19"/><polygon class="cls-3" points="50.62 25.31 47.81 28.13 50.62 30.94 47.81 33.75 50.62 36.56 56.24 30.94 50.62 25.31 50.62 25.31"/><polygon class="cls-3" points="59.05 28.13 56.24 30.94 61.87 36.56 64.68 33.75 59.05 28.13 59.05 28.13"/><polygon class="cls-3" points="67.49 30.94 64.68 33.75 70.3 39.38 73.12 36.56 67.49 30.94 67.49 30.94"/><polygon class="cls-3" points="75.93 33.75 73.12 36.56 78.74 42.19 81.55 39.38 75.93 33.75 75.93 33.75"/><polygon class="cls-3" points="67.49 2.82 64.68 0 61.87 2.82 64.68 5.63 53.43 16.88 61.87 25.31 64.68 22.5 59.06 16.88 73.12 2.82 70.31 0 67.49 2.82 67.49 2.82"/><polygon class="cls-3" points="70.31 28.13 73.12 25.31 67.49 19.69 64.68 22.5 70.31 28.13 70.31 28.13"/><polygon class="cls-3" points="78.74 30.94 81.55 28.12 75.93 22.5 73.12 25.31 78.74 30.94 78.74 30.94"/><polygon class="cls-3" points="87.18 33.75 89.99 30.94 84.36 25.31 81.55 28.12 87.18 33.75 87.18 33.75"/><polygon class="cls-3" points="81.55 39.38 84.36 42.19 89.99 36.56 87.18 33.75 81.55 39.38 81.55 39.38"/><polygon class="cls-3" points="16.88 2.81 14.06 0 11.25 2.81 14.06 5.63 16.88 2.81 16.88 2.81"/><polygon class="cls-3" points="22.5 2.82 19.68 0 16.88 2.81 19.69 5.63 22.5 2.82 22.5 2.82"/><polygon class="cls-3" points="28.12 2.82 25.31 0 22.5 2.82 25.31 5.63 28.12 2.82 28.12 2.82"/><polygon class="cls-3" points="33.74 2.82 30.93 0.01 28.12 2.82 30.93 5.63 33.74 2.82 33.74 2.82"/><polygon class="cls-3" points="39.37 2.81 36.56 0 33.74 2.82 36.56 5.63 39.37 2.81 39.37 2.81"/><polygon class="cls-3" points="44.99 2.82 42.18 0 39.37 2.81 42.18 5.63 44.99 2.82 44.99 2.82"/><polygon class="cls-3" points="50.62 2.82 47.81 0 44.99 2.82 47.81 5.63 50.62 2.82 50.62 2.82"/><polygon class="cls-3" points="56.24 2.82 53.43 0 50.62 2.82 53.43 5.63 56.24 2.82 56.24 2.82"/><polygon class="cls-3" points="61.87 2.82 59.06 0.01 56.24 2.82 59.06 5.63 61.87 2.82 61.87 2.82"/></g></g></svg>