<svg xmlns="http://www.w3.org/2000/svg" viewBox="0 0 43.5 51.2"><defs><style>.cls-1{fill:#fff5f7;}.cls-2{fill:#46247d;}</style></defs><g id="图层_2" data-name="图层 2"><g id="OBJECTS"><polygon class="cls-1" points="17.3 2.89 2.89 17.31 2.89 48.3 40.61 48.3 40.61 2.89 17.3 2.89"/><rect class="cls-2" x="2.89" y="48.3" width="37.72" height="2.89"/><rect class="cls-2" x="11.52" y="5.79" width="2.89" height="2.89"/><rect class="cls-2" x="8.62" y="8.68" width="2.9" height="2.9"/><polygon class="cls-2" points="20.2 20.2 20.2 20.14 20.2 2.89 40.61 2.89 40.61 0 20.2 0 17.3 0 17.3 2.89 14.41 2.89 14.41 5.79 17.3 5.79 17.3 17.31 5.79 17.31 5.79 14.47 8.62 14.47 8.62 11.57 5.73 11.57 5.73 14.41 2.89 14.41 2.89 17.31 0 17.31 0 20.2 0 48.3 2.89 48.3 2.89 20.2 20.2 20.2"/><rect class="cls-2" x="40.61" y="2.89" width="2.89" height="45.41"/></g></g></svg>