<svg xmlns="http://www.w3.org/2000/svg" xmlns:xlink="http://www.w3.org/1999/xlink" viewBox="0 0 80.48 153.43"><defs><style>.cls-1,.cls-2,.cls-3,.cls-4,.cls-5,.cls-6,.cls-7,.cls-8,.cls-9{stroke:#46247d;stroke-linejoin:round;stroke-width:1.5px;}.cls-1{fill:url(#linear-gradient);}.cls-2{fill:url(#linear-gradient-2);}.cls-3{fill:url(#linear-gradient-3);}.cls-4{fill:url(#linear-gradient-4);}.cls-5{fill:url(#linear-gradient-5);}.cls-6{fill:url(#linear-gradient-6);}.cls-7{fill:url(#linear-gradient-7);}.cls-8{fill:url(#linear-gradient-8);}.cls-9{fill:none;stroke-linecap:round;}</style><linearGradient id="linear-gradient" x1="708.31" y1="-1407.5" x2="648.53" y2="-1317.57" gradientTransform="matrix(0.86, -0.51, 0.51, 0.86, 138.19, 1617.57)" gradientUnits="userSpaceOnUse"><stop offset="0" stop-color="#ffa2d6"/><stop offset="0.73" stop-color="#9dc6f8"/><stop offset="0.79" stop-color="#99c8fa"/><stop offset="1" stop-color="#5be0fc"/></linearGradient><linearGradient id="linear-gradient-2" x1="745.53" y1="-1429.7" x2="676.48" y2="-1325.81" xlink:href="#linear-gradient"/><linearGradient id="linear-gradient-3" x1="710.88" y1="-1437.64" x2="654.87" y2="-1353.36" xlink:href="#linear-gradient"/><linearGradient id="linear-gradient-4" x1="753.59" y1="-1433.27" x2="681.46" y2="-1324.77" xlink:href="#linear-gradient"/><linearGradient id="linear-gradient-5" x1="708.78" y1="-1434.71" x2="653.04" y2="-1350.86" xlink:href="#linear-gradient"/><linearGradient id="linear-gradient-6" x1="753.54" y1="-1437.36" x2="681.61" y2="-1329.14" xlink:href="#linear-gradient"/><linearGradient id="linear-gradient-7" x1="705.55" y1="-1433.9" x2="649.28" y2="-1349.24" xlink:href="#linear-gradient"/><linearGradient id="linear-gradient-8" x1="720.79" y1="-1437.39" x2="659.46" y2="-1345.12" xlink:href="#linear-gradient"/></defs><g id="图层_2" data-name="图层 2"><g id="OBJECTS"><path class="cls-1" d="M29,152.68l-2.71-1.06c.21-.52,20.93-54.28,9.42-105.91l2.84-.64C50.31,97.59,29.26,152.14,29,152.68Z"/><path class="cls-2" d="M64.12,59.71C55.25,70.37,40.58,72.78,40.58,72.78s-.27-14.85,8.6-25.5S72.73,34.2,72.73,34.2,73,49.05,64.12,59.71Z"/><path class="cls-3" d="M30.31,47.91c9.59,10,10.36,24.85,10.36,24.85S25.88,71.38,16.28,61.37,5.9,36.52,5.9,36.52,20.69,37.92,30.31,47.91Z"/><path class="cls-4" d="M65.24,94.54c-11.17,8.22-26,7-26,7s3.3-14.49,14.48-22.7,26-7,26-7S76.42,86.33,65.24,94.54Z"/><path class="cls-5" d="M28.35,77c9.81,9.79,10.91,24.6,10.91,24.6s-14.83-1.07-24.64-10.85S3.71,66.11,3.71,66.11,18.53,67.17,28.35,77Z"/><path class="cls-6" d="M61,122.48c-11.51,7.73-26.26,5.93-26.26,5.93s3.92-14.34,15.43-22.07,26.26-5.94,26.26-5.94S72.55,114.74,61,122.48Z"/><path class="cls-7" d="M24.91,103.37c9.39,10.19,9.86,25,9.86,25S20,126.73,10.61,116.52s-9.86-25-9.86-25S15.51,93.16,24.91,103.37Z"/><path class="cls-8" d="M28.85.75S21.3,13.56,23.79,27.2s14.08,23,14.08,23,7.54-12.8,5.05-26.44S28.85.75,28.85.75Z"/><line class="cls-9" x1="37.87" y1="50.15" x2="29.85" y2="7.7"/><path class="cls-9" d="M66.3,42.7C57.07,54.2,40.58,72.4,40.58,72.4S23.74,57.27,12.88,43.33"/><path class="cls-9" d="M11.3,74.07s13.19,16.07,28,27.51c0,0,19.15-11.81,31.78-23.51"/><path class="cls-9" d="M8.89,100.35S22,117.4,34.77,128.41c7.68-3.58,35-22.29,35-22.29"/></g></g></svg>