<svg width="2187" height="1518" xmlns="http://www.w3.org/2000/svg" xmlns:xlink="http://www.w3.org/1999/xlink" xml:space="preserve" overflow="hidden"><defs><clipPath id="clip0"><rect x="1026" y="434" width="2187" height="1518"/></clipPath></defs><g clip-path="url(#clip0)" transform="translate(-1026 -434)"><path d="M1246.64 1178.81 1244.55 1220.28 1233.45 1230.46 1026 1408.61ZM3055.64 434.206C3210.3 440.209 3290.76 579.002 3107.59 1045.51L3092.1 1083.17 3087.09 1050.32 3087.05 1050.19 3092 1082.63 3067.29 1142.7C2979.63 1347.13 2847.76 1606.07 2659.57 1932 2707.24 1760.29 2732.26 1670.27 2744.6 1625.92L2746.77 1618.12 2746.27 1619.98C2743.46 1630.47 2765.7 1550.14 2749.14 1609.61L2746.77 1618.12 2747.39 1615.84C2752.81 1595.98 2775.96 1511.87 2845.92 1258.54 3054.2 623.369 2633.09 774.174 2424.66 850.113L1374.01 1265.26C1204.18 1345.43 1486.79 1000.75 1257.58 1208.37L1244.86 1220.04 1246.96 1178.57 1444.14 973.204C1650.61 743.455 1348.69 1191.28 1563.94 1081.27L1644.46 1043.09 1772.52 982.366 2401.47 684.15 2401.72 685.008 2559.49 609.926 2559.15 609.387 2703.46 540.964 2760.22 514.11 2760.7 514.467 2773.63 508.347C2869.58 465.576 2973.16 431.005 3055.64 434.206Z" fill="#FF99CC" fill-rule="evenodd"/><path d="M2310.41 481.001C2334.59 480.947 2356.9 482.304 2374.75 485.881 2446.15 500.187 2500.87 534.78 2540.4 583.648 2545.34 589.757 2550.47 596.641 2555.62 604.105L2559 609.382 2401.3 684 2400.59 681.582C2383.21 631.044 2334.04 559.739 2112 497.811 2148.47 494.035 2237.87 481.165 2310.41 481.001Z" fill="#FF0066" fill-rule="evenodd"/><path d="M1758.98 721C1733.36 806.481 1714.64 867.913 1726.81 922.051 1731.37 942.352 1748.46 960.964 1767.6 977.748L1773 982.236 1644.69 1043 1641.28 1033.68C1633.59 1008.81 1629.79 980.512 1628.38 959.664 1625.55 917.967 1638.81 876.795 1660.58 837.017 1682.35 797.24 1707.94 770.735 1758.98 721Z" fill="#FF0066" fill-rule="evenodd"/><path d="M2276 1329.09 2768 954 2703.9 1215.1 2419.4 1318.06 2604.4 1379.25 2562.7 1517 2276 1329.09Z" fill="#FF0066" fill-rule="evenodd"/><path d="M2772.63 781.864C2723.8 770.538 2592.8 783.453 2481.2 829.359 2369.6 875.265 2215.74 946.89 2103.05 1057.3 2041.35 1117.85 2064.55 1202.26 2065.66 1255.35 2083.15 1360.33 2108.04 1449.64 2088.61 1523.94 2056.92 1623.15 2069.31 1579.64 2060 1618 2086.61 1657.27 2119.15 1678.35 2149.62 1719 2160.35 1644.53 2119.47 1272.14 2124.39 1171.18 2126.27 1076.83 2126.35 1031.48 2170.55 1122.73 2193.7 1162.04 2233.13 1012.4 2485.53 882.728 2831.74 699.205 2898.81 920.166 2892.62 896.006 2884.91 871.247 2879.89 853.324 2860.96 829.902 2842.03 811.732 2821.47 793.19 2772.63 781.864Z" fill="#FF99CC" fill-rule="evenodd"/><path d="M1743 1427C1743 1345.26 1809.49 1279 1891.5 1279 1973.51 1279 2040 1345.26 2040 1427 2040 1508.74 1973.51 1575 1891.5 1575 1809.49 1575 1743 1508.74 1743 1427Z" fill="#FFFFFF" fill-rule="evenodd"/><path d="M1862 1418.5C1862 1372.94 1899.16 1336 1945 1336 1990.84 1336 2028 1372.94 2028 1418.5 2028 1464.06 1990.84 1501 1945 1501 1899.16 1501 1862 1464.06 1862 1418.5Z" fill="#ED1370" fill-rule="evenodd"/><path d="M1735 1529.21C1787.54 1638.1 1876.36 1796.26 1912.93 1835.78 1950.47 1885.95 2077.57 1959.8 2208.9 1951.33 2340.22 1942.87 2579.4 1842.07 2700.86 1784.98L2789 1471C2718.2 1756.23 2385.12 1844.47 2243.17 1904.24 2101.21 1964.01 2002.2 1869.36 1937.27 1829.61 1852.57 1767.1 1741.12 1522.86 1735 1529.21Z" fill="#DF6BA8" fill-rule="evenodd"/><path d="M2037 1787.58 2084.22 1823.53C2099.96 1835.52 2114.76 1785.57 2141.73 1785.89 2168.71 1786.21 2192.03 1846.75 2246.08 1825.47 2300.12 1804.18 2465.87 1663.7 2466 1658.18 2466.13 1652.66 2300.52 1777.71 2246.87 1792.35 2193.23 1806.98 2171.35 1745.84 2144.12 1745.98L2083.51 1793.22C2063.31 1808.96 2036.88 1782.52 2037 1787.58Z" fill="#DF6BA8" fill-rule="evenodd"/></g></svg>