<svg xmlns="http://www.w3.org/2000/svg" xmlns:xlink="http://www.w3.org/1999/xlink" viewBox="0 0 167.69 163.04"><defs><style>.cls-1{isolation:isolate;}.cls-2{fill:url(#linear-gradient);}.cls-3{mix-blend-mode:multiply;fill:url(#linear-gradient-2);}.cls-4{mix-blend-mode:overlay;}.cls-5{fill:url(#linear-gradient-3);}.cls-6{fill:url(#linear-gradient-4);}.cls-7{fill:none;stroke:#46247d;stroke-linejoin:round;stroke-width:1.5px;}</style><linearGradient id="linear-gradient" x1="-343.35" y1="-53.66" x2="-342.35" y2="-53.66" gradientTransform="matrix(66.29, 152.41, 152.41, -66.29, 30990.7, 48775.7)" gradientUnits="userSpaceOnUse"><stop offset="0" stop-color="#ffeeb3"/><stop offset="1" stop-color="#ffa2d6"/></linearGradient><linearGradient id="linear-gradient-2" x1="15.64" y1="126.27" x2="130.7" y2="126.27" gradientUnits="userSpaceOnUse"><stop offset="0" stop-color="#7d4efc"/><stop offset="0.36" stop-color="#af6eed"/><stop offset="1" stop-color="#ffa2d6"/></linearGradient><linearGradient id="linear-gradient-3" x1="57.93" y1="82" x2="165.02" y2="82" gradientUnits="userSpaceOnUse"><stop offset="0" stop-color="#fff"/><stop offset="1" stop-color="#fff" stop-opacity="0.3"/></linearGradient><linearGradient id="linear-gradient-4" x1="0.75" y1="68.78" x2="56.4" y2="68.78" xlink:href="#linear-gradient-3"/></defs><g class="cls-1"><g id="图层_2" data-name="图层 2"><g id="OBJECTS"><path class="cls-2" d="M137.73,94.71A62.58,62.58,0,0,1,56.4.75,83.1,83.1,0,1,0,163.79,56.48,62.34,62.34,0,0,1,137.73,94.71Z"/><path class="cls-3" d="M130.32,148.07a85.13,85.13,0,0,0,8.42-6.5l-30.15-36.42a62.73,62.73,0,0,1-46.71-14.9l-17.08,12,1.38,4.17-5.87,4.13-4.3-5.2L12.55,121.86q1.15,1.92,2.42,3.81A83.1,83.1,0,0,0,130.32,148.07Z"/><g class="cls-4"><path class="cls-5" d="M139.68,96.8A62.33,62.33,0,0,0,165,61.44c-.36-1.66-.76-3.31-1.23-5a62.56,62.56,0,0,1-105.86,30A62.58,62.58,0,0,0,139.68,96.8Z"/><path class="cls-6" d="M16.92,127.76A83.13,83.13,0,0,1,52.89,5C54,3.53,55.16,2.11,56.4.75A83.15,83.15,0,0,0,15,125.67a84.12,84.12,0,0,0,9,11.13A83.2,83.2,0,0,1,16.92,127.76Z"/></g><path class="cls-7" d="M137.73,94.71A62.58,62.58,0,0,1,56.4.75,83.1,83.1,0,1,0,163.79,56.48,62.34,62.34,0,0,1,137.73,94.71Z"/></g></g></g></svg>