<svg xmlns="http://www.w3.org/2000/svg" xmlns:xlink="http://www.w3.org/1999/xlink" viewBox="0 0 147.65 87.49"><defs><style>.cls-1,.cls-2,.cls-3,.cls-4,.cls-5,.cls-6,.cls-7,.cls-8,.cls-9{stroke:#46247d;stroke-linejoin:round;stroke-width:1.5px;}.cls-1{fill:url(#linear-gradient);}.cls-2{fill:url(#linear-gradient-2);}.cls-3{fill:url(#linear-gradient-3);}.cls-4{fill:url(#linear-gradient-4);}.cls-5{fill:url(#linear-gradient-5);}.cls-6{fill:url(#linear-gradient-6);}.cls-7{fill:url(#linear-gradient-7);}.cls-8{fill:url(#linear-gradient-8);}.cls-9{fill:none;stroke-linecap:round;}</style><linearGradient id="linear-gradient" x1="3452.24" y1="-2653.37" x2="3392.47" y2="-2563.44" gradientTransform="matrix(-0.25, 0.97, 0.97, 0.25, 3474.95, -2632.94)" gradientUnits="userSpaceOnUse"><stop offset="0" stop-color="#ffa2d6"/><stop offset="0.73" stop-color="#9dc6f8"/><stop offset="0.79" stop-color="#99c8fa"/><stop offset="1" stop-color="#5be0fc"/></linearGradient><linearGradient id="linear-gradient-2" x1="3489.46" y1="-2675.57" x2="3420.41" y2="-2571.68" xlink:href="#linear-gradient"/><linearGradient id="linear-gradient-3" x1="3454.82" y1="-2683.51" x2="3398.8" y2="-2599.23" xlink:href="#linear-gradient"/><linearGradient id="linear-gradient-4" x1="3497.51" y1="-2679.14" x2="3425.39" y2="-2570.64" xlink:href="#linear-gradient"/><linearGradient id="linear-gradient-5" x1="3452.71" y1="-2680.58" x2="3396.97" y2="-2596.73" xlink:href="#linear-gradient"/><linearGradient id="linear-gradient-6" x1="3497.47" y1="-2683.23" x2="3425.54" y2="-2575.02" xlink:href="#linear-gradient"/><linearGradient id="linear-gradient-7" x1="3449.49" y1="-2679.77" x2="3393.22" y2="-2595.11" xlink:href="#linear-gradient"/><linearGradient id="linear-gradient-8" x1="3464.72" y1="-2683.26" x2="3403.4" y2="-2590.99" xlink:href="#linear-gradient"/></defs><g id="图层_2" data-name="图层 2"><g id="OBJECTS"><path class="cls-1" d="M146.9,12.19l-1.77-2.32c-.45.36-46.45,35-99.25,38.15L46,50.93C99.77,47.77,146.44,12.55,146.9,12.19Z"/><path class="cls-2" d="M67.13,71.45c7.81-11.46,6.1-26.22,6.1-26.22S58.88,49.05,51.07,60.51,45,86.74,45,86.74,59.32,82.92,67.13,71.45Z"/><path class="cls-3" d="M46.5,42.18c12.26,6.48,26.74,3.15,26.74,3.15S67.84,31.48,55.58,25s-26.74-3.14-26.74-3.14S34.25,35.68,46.5,42.18Z"/><path class="cls-4" d="M100.93,63c4.83-13-.37-26.92-.37-26.92s-13,7.16-17.84,20.16.37,26.92.37,26.92S96.11,76,100.93,63Z"/><path class="cls-5" d="M73.92,32.32c12.1,6.75,26.64,3.73,26.64,3.73s-5.09-14-17.2-20.71-26.67-3.73-26.67-3.73S61.79,25.57,73.92,32.32Z"/><path class="cls-6" d="M126.63,51.25c4.28-13.19-1.5-26.89-1.5-26.89s-12.71,7.71-17,20.9,1.5,26.89,1.5,26.89S122.36,64.45,126.63,51.25Z"/><path class="cls-7" d="M98.34,21.76c12.38,6.24,26.79,2.6,26.79,2.6s-5.67-13.73-18.07-20S80.27,1.8,80.27,1.8,85.94,15.53,98.34,21.76Z"/><path class="cls-8" d="M.75,53.73S11,43,24.79,41.61s25.94,7.24,25.94,7.24S40.49,59.6,26.69,61,.75,53.73.75,53.73Z"/><line class="cls-9" x1="50.73" y1="48.85" x2="7.71" y2="52.79"/><path class="cls-9" d="M51.37,78.23c8.52-12,21.5-32.89,21.5-32.89S53.69,33.3,37.3,26.68"/><path class="cls-9" d="M66.44,16.72S85.51,25,100.56,36.05c0,0-6.1,21.66-13.87,37"/><path class="cls-9" d="M91,7.19s20,7.88,34.09,17.17c-1.34,8.37-11.82,39.78-11.82,39.78"/></g></g></svg>