<svg xmlns="http://www.w3.org/2000/svg" xmlns:xlink="http://www.w3.org/1999/xlink" viewBox="0 0 133.66 95.6"><defs><style>.cls-1,.cls-2,.cls-3,.cls-4,.cls-5,.cls-6,.cls-7,.cls-8,.cls-9{stroke:#46247d;stroke-linejoin:round;stroke-width:1.5px;}.cls-1{fill:url(#linear-gradient);}.cls-2{fill:url(#linear-gradient-2);}.cls-3{fill:url(#linear-gradient-3);}.cls-4{fill:url(#linear-gradient-4);}.cls-5{fill:url(#linear-gradient-5);}.cls-6{fill:url(#linear-gradient-6);}.cls-7{fill:url(#linear-gradient-7);}.cls-8{fill:url(#linear-gradient-8);}.cls-9{fill:none;stroke-linecap:round;}</style><linearGradient id="linear-gradient" x1="5500.87" y1="-1363.77" x2="5500.87" y2="-1274.84" gradientTransform="matrix(-0.87, 0.5, 0.5, 0.87, 5511.92, -1537.72)" gradientUnits="userSpaceOnUse"><stop offset="0" stop-color="#5be0fc"/><stop offset="1" stop-color="#7d4efc"/></linearGradient><linearGradient id="linear-gradient-2" x1="5563.51" y1="-1384.08" x2="5512.24" y2="-1283.19" xlink:href="#linear-gradient"/><linearGradient id="linear-gradient-3" x1="5533.75" y1="-1399.2" x2="5482.48" y2="-1298.32" xlink:href="#linear-gradient"/><linearGradient id="linear-gradient-4" x1="5564.28" y1="-1383.69" x2="5513.01" y2="-1282.8" xlink:href="#linear-gradient"/><linearGradient id="linear-gradient-5" x1="5530.6" y1="-1400.79" x2="5479.33" y2="-1299.92" xlink:href="#linear-gradient"/><linearGradient id="linear-gradient-6" x1="5559.35" y1="-1386.19" x2="5508.09" y2="-1285.31" xlink:href="#linear-gradient"/><linearGradient id="linear-gradient-7" x1="5525.9" y1="-1403.19" x2="5474.64" y2="-1302.31" xlink:href="#linear-gradient"/><linearGradient id="linear-gradient-8" x1="5544.25" y1="-1393.86" x2="5492.99" y2="-1292.98" xlink:href="#linear-gradient"/></defs><g id="图层_2" data-name="图层 2"><g id="OBJECTS"><path class="cls-1" d="M132.48,78.58l.43-2.88c-.57-.07-57.51-8.83-96.59-44.48l-2,2.14C74.11,69.64,131.9,78.5,132.48,78.58Z"/><path class="cls-2" d="M34.37,62.79c13.66-2.4,23-13.92,23-13.92S44.66,41.25,31,43.65,8,57.57,8,57.57,20.71,65.2,34.37,62.79Z"/><path class="cls-3" d="M41,27.59c3.91,13.3,16.4,21.35,16.4,21.35S63.5,35.41,59.6,22.1,43.2.75,43.2.75,37.05,14.27,41,27.59Z"/><path class="cls-4" d="M64,81.08c12.69-5.61,19-19,19-19s-14.2-4.34-26.88,1.28-19,19.05-19,19.05S51.35,86.7,64,81.08Z"/><path class="cls-5" d="M67.14,40.34C70.75,53.72,83.05,62,83.05,62s6.45-13.39,2.84-26.78S70,13.56,70,13.56,63.51,27,67.14,40.34Z"/><path class="cls-6" d="M90.36,91.32c12.43-6.14,18.21-19.84,18.21-19.84S94.18,67.75,81.75,73.9,63.54,93.73,63.54,93.73,77.92,97.47,90.36,91.32Z"/><path class="cls-7" d="M91.74,50.48c4.18,13.21,16.83,21,16.83,21s5.88-13.64,1.7-26.87-16.84-21-16.84-21S87.56,37.24,91.74,50.48Z"/><path class="cls-8" d="M.75,2.87s14.86-.18,25.46,8.77S39.12,35.27,39.12,35.27s-14.85.17-25.44-8.78S.75,2.87.75,2.87Z"/><line class="cls-9" x1="39.12" y1="35.27" x2="6.28" y2="7.2"/><path class="cls-9" d="M18.52,56.23c14.57-2.29,38.56-7.55,38.56-7.55s-4.75-22.14-11.45-38.5"/><path class="cls-9" d="M73.09,24.1s7.39,19.44,10,37.94c0,0-19.76,10.74-36.19,15.89"/><path class="cls-9" d="M97.09,35.08s8.29,19.81,11.48,36.4c-6.93,4.88-36.74,19.29-36.74,19.29"/></g></g></svg>