<svg xmlns="http://www.w3.org/2000/svg" xmlns:xlink="http://www.w3.org/1999/xlink" viewBox="0 0 374.19 345.57"><defs><style>.cls-1{isolation:isolate;}.cls-10,.cls-16,.cls-17,.cls-18,.cls-19,.cls-2,.cls-23,.cls-24,.cls-25,.cls-3,.cls-4,.cls-5,.cls-6,.cls-7,.cls-8,.cls-9{stroke:#46247d;stroke-linejoin:round;}.cls-10,.cls-16,.cls-17,.cls-18,.cls-19,.cls-2,.cls-23,.cls-24,.cls-3,.cls-4,.cls-5,.cls-6,.cls-7,.cls-8,.cls-9{stroke-width:1.5px;}.cls-2{fill:url(#linear-gradient);}.cls-3{fill:url(#linear-gradient-2);}.cls-4{fill:url(#linear-gradient-3);}.cls-5{fill:url(#linear-gradient-4);}.cls-6{fill:url(#linear-gradient-5);}.cls-7{fill:url(#linear-gradient-6);}.cls-8{fill:url(#linear-gradient-7);}.cls-9{fill:url(#linear-gradient-8);}.cls-10{fill:url(#linear-gradient-9);}.cls-11{fill:#404040;}.cls-12{fill:url(#linear-gradient-10);}.cls-13{fill:url(#linear-gradient-11);}.cls-14,.cls-16,.cls-25{fill:none;}.cls-14{stroke:#5934ba;stroke-miterlimit:10;stroke-width:0.75px;}.cls-15{mix-blend-mode:overlay;fill:url(#linear-gradient-12);}.cls-17,.cls-21,.cls-22{fill:#fff;}.cls-18{fill:url(#linear-gradient-13);}.cls-19{fill:url(#linear-gradient-14);}.cls-20{fill:url(#linear-gradient-15);}.cls-21{opacity:0.4;}.cls-23{fill:url(#linear-gradient-16);}.cls-24{fill:url(#linear-gradient-17);}.cls-25{stroke-linecap:round;}</style><linearGradient id="linear-gradient" x1="345.38" y1="213.87" x2="351.02" y2="213.87" gradientUnits="userSpaceOnUse"><stop offset="0" stop-color="#6439d6"/><stop offset="1" stop-color="#ff78c3"/></linearGradient><linearGradient id="linear-gradient-2" x1="348.38" y1="207.81" x2="373.44" y2="207.81" xlink:href="#linear-gradient"/><linearGradient id="linear-gradient-3" x1="189.6" y1="266.78" x2="348.02" y2="266.78" xlink:href="#linear-gradient"/><linearGradient id="linear-gradient-4" x1="0.75" y1="238.55" x2="172.83" y2="238.55" xlink:href="#linear-gradient"/><linearGradient id="linear-gradient-5" x1="170.19" y1="333.01" x2="195.24" y2="333.01" xlink:href="#linear-gradient"/><linearGradient id="linear-gradient-6" x1="182.03" y1="9.8" x2="186.22" y2="9.8" xlink:href="#linear-gradient"/><linearGradient id="linear-gradient-7" x1="164.1" y1="26.51" x2="168.12" y2="26.51" xlink:href="#linear-gradient"/><linearGradient id="linear-gradient-8" x1="37.74" y1="113.53" x2="42.55" y2="113.53" xlink:href="#linear-gradient"/><linearGradient id="linear-gradient-9" x1="367.01" y1="193.23" x2="348.93" y2="182.27" gradientUnits="userSpaceOnUse"><stop offset="0" stop-color="#7d4efc"/><stop offset="0.36" stop-color="#af6eed"/><stop offset="1" stop-color="#ffa2d6"/></linearGradient><linearGradient id="linear-gradient-10" x1="-187.48" y1="-99.82" x2="-186.48" y2="-99.82" gradientTransform="matrix(35, -304.5, -304.5, -35, -23664.56, -60251.91)" xlink:href="#linear-gradient-9"/><linearGradient id="linear-gradient-11" x1="44.96" y1="186.45" x2="139.96" y2="84.45" xlink:href="#linear-gradient-9"/><linearGradient id="linear-gradient-12" x1="304.19" y1="33.14" x2="208.69" y2="300.64" gradientUnits="userSpaceOnUse"><stop offset="0" stop-color="#fff"/><stop offset="1" stop-color="#fff" stop-opacity="0.3"/></linearGradient><linearGradient id="linear-gradient-13" x1="189.72" y1="95.12" x2="189.72" y2="229.05" gradientUnits="userSpaceOnUse"><stop offset="0" stop-color="#5be0fc"/><stop offset="1" stop-color="#7d4efc"/></linearGradient><linearGradient id="linear-gradient-14" x1="149.48" y1="91.17" x2="154.04" y2="57.34" gradientUnits="userSpaceOnUse"><stop offset="0" stop-color="#b69cfc"/><stop offset="1" stop-color="#ffbdfe"/></linearGradient><linearGradient id="linear-gradient-15" x1="-187.25" y1="-81.99" x2="-186.25" y2="-81.99" gradientTransform="matrix(14.75, -109.5, -109.5, -14.75, -6095.35, -21551.16)" gradientUnits="userSpaceOnUse"><stop offset="0" stop-color="#d2c2fc"/><stop offset="1" stop-color="#ffedf7"/></linearGradient><linearGradient id="linear-gradient-16" x1="160.39" y1="307.52" x2="178.86" y2="307.52" xlink:href="#linear-gradient-9"/><linearGradient id="linear-gradient-17" x1="177.58" y1="313.26" x2="193.75" y2="320.47" xlink:href="#linear-gradient-9"/></defs><g class="cls-1"><g id="图层_2" data-name="图层 2"><g id="OBJECTS"><polygon class="cls-2" points="351.02 211.75 348.38 219.63 345.38 216 348.02 208.12 351.02 211.75"/><polygon class="cls-3" points="373.44 196 370.8 203.88 348.38 219.63 351.02 211.75 373.44 196"/><polygon class="cls-4" points="348.02 208.12 345.38 216 189.6 325.44 192.24 317.56 348.02 208.12"/><polygon class="cls-5" points="172.83 336.94 170.19 344.82 0.75 140.16 3.39 132.28 172.83 336.94"/><polygon class="cls-6" points="195.24 321.19 192.61 329.07 170.19 344.82 172.83 336.94 195.24 321.19"/><polygon class="cls-7" points="186.22 6.79 183.59 14.68 182.03 12.8 184.67 4.92 186.22 6.79"/><polygon class="cls-8" points="168.12 24.66 165.48 32.54 164.1 28.37 166.74 20.48 168.12 24.66"/><polygon class="cls-9" points="42.55 112.88 39.92 120.76 37.74 114.18 40.37 106.29 42.55 112.88"/><polygon class="cls-10" points="348.01 178.9 354.56 186.81 359 183.69 348.99 171.59 334.21 181.98 337.67 186.16 348.01 178.9"/><polygon class="cls-11" points="53.06 97.38 50.42 105.27 48.97 103.52 51.61 95.63 53.06 97.38"/><path class="cls-12" d="M214.78,4.35,190.6.75l-5.93,4.16,1.55,1.88-19.48,13.7,1.38,4.17-5.87,4.12L158,23.59,53.06,97.38l-12.69,8.91,2.18,6.59-12.5,8.78-4.25-5.13L3.39,132.28,172.83,336.94l22.41-15.75-3-3.63L348,208.12l3,3.63L373.44,196ZM344.87,191.52l-7.46-9,11-7.74,7.46,9Z"/><path class="cls-13" d="M204.79,80.17,162.25,28.78,158,23.59,53.06,97.38l-11.81,8.29,57.14,69,103.86-72.84C209.4,96.82,210.54,87.12,204.79,80.17Z"/><path class="cls-14" d="M41.19,105.6l57.2,69.09,103.86-72.84c7.15-5,8.29-14.73,2.54-21.68L162.25,28.78"/><path class="cls-15" d="M373.44,196,214.78,4.35,190.6.75l-3,2.08,25.83,3.86L369.79,195.51l-18.32,12.86-1.53-1.85a2.5,2.5,0,0,0-3.36-.45L190.8,315.51a2.51,2.51,0,0,0-.49,3.64l1.28,1.55-20.2,14.19,1.44,2.05,22.41-15.75-3-3.63L348,208.12l3,3.63,20.37-14.31h0Z"/><path class="cls-16" d="M214.78,4.35,190.6.75l-5.93,4.16,1.55,1.88-19.48,13.7,1.38,4.17-5.87,4.12L158,23.59,53.06,97.38l-12.69,8.91,2.18,6.59-12.5,8.78-4.25-5.13L3.39,132.28,172.83,336.94l22.41-15.75-3-3.63L348,208.12l3,3.63L373.44,196ZM344.87,191.52l-7.46-9,11-7.74,7.46,9Z"/><path class="cls-17" d="M277,120.42,122.38,229.05l59.44,71.79A10.93,10.93,0,0,0,196.24,303l138.62-97.39a9,9,0,0,0,1.57-13.38L277,120.42"/><path class="cls-18" d="M244.91,96.94,106.28,194.33a9,9,0,0,0-1.57,13.38l17.67,21.34L277,120.42,259.33,99.08a10.92,10.92,0,0,0-14.42-2.14"/><polygon class="cls-19" points="145.3 53.71 181.26 97.16 185.19 94.4 144.83 45.65 116.82 65.33 121.21 70.64 145.3 53.71"/><path class="cls-20" d="M204.79,80.17,162.25,28.78l-5.7-6.88L51.61,95.63l1.45,1.75,57.2,69.1,92-64.63C209.4,96.82,210.54,87.12,204.79,80.17ZM157,113.22,119.73,68.16,145.63,50,182.94,95Z"/><path class="cls-21" d="M174.48,121.36l-20.76,14.58V109.21l3.32,4L174.48,101ZM89,140.77l21.28,25.71L122.38,158V71.36l-2.65-3.2,2.65-1.86V45.91L89,69.38ZM156.55,21.9l-2.83,2V59.74l20.76,25.07V43.55L162.25,28.78Z"/><path class="cls-22" d="M204.79,80.17,162.25,28.78l-5.7-6.88-1.92,1.59,48.24,58.27a12.74,12.74,0,0,1,3,9.87,11.82,11.82,0,0,1-5,8.17l-92,64.63,1.44,2,92-64.63C209.4,96.82,210.54,87.12,204.79,80.17Z"/><path class="cls-16" d="M204.79,80.17,162.25,28.78l-5.7-6.88L51.61,95.63l1.45,1.75,57.2,69.1,92-64.63C209.4,96.82,210.54,87.12,204.79,80.17ZM157,113.22,119.73,68.16,145.63,50,182.94,95Z"/><line class="cls-16" x1="348.01" y1="178.9" x2="348.43" y2="174.77"/><polygon class="cls-23" points="160.39 306.88 167.85 315.89 178.86 308.15 171.4 299.14 160.39 306.88"/><polygon class="cls-24" points="162.36 309.27 167.85 315.89 176.35 309.92 170.86 303.3 162.36 309.27"/><line class="cls-16" x1="170.86" y1="303.29" x2="171.4" y2="299.14"/><line class="cls-16" x1="145.3" y1="53.71" x2="145.63" y2="49.96"/><line class="cls-25" x1="145.36" y1="234.15" x2="275.86" y2="142.27"/><line class="cls-25" x1="156.36" y1="247.44" x2="286.86" y2="155.55"/><line class="cls-25" x1="167.37" y1="260.73" x2="297.87" y2="168.84"/><line class="cls-25" x1="178.37" y1="274.02" x2="308.87" y2="182.13"/><line class="cls-25" x1="189.38" y1="287.31" x2="319.88" y2="195.42"/></g></g></g></svg>