<svg xmlns="http://www.w3.org/2000/svg" xmlns:xlink="http://www.w3.org/1999/xlink" viewBox="0 0 89.29 145.84"><defs><style>.cls-1,.cls-2,.cls-3,.cls-4,.cls-5,.cls-6,.cls-7,.cls-8,.cls-9{stroke:#46247d;stroke-linejoin:round;stroke-width:1.5px;}.cls-1{fill:url(#linear-gradient);}.cls-2{fill:url(#linear-gradient-2);}.cls-3{fill:url(#linear-gradient-3);}.cls-4{fill:url(#linear-gradient-4);}.cls-5{fill:url(#linear-gradient-5);}.cls-6{fill:url(#linear-gradient-6);}.cls-7{fill:url(#linear-gradient-7);}.cls-8{fill:url(#linear-gradient-8);}.cls-9{fill:none;stroke-linecap:round;}</style><linearGradient id="linear-gradient" x1="6138.83" y1="536.62" x2="6079.06" y2="626.55" gradientTransform="matrix(-0.98, -0.21, -0.21, 0.98, 6151.68, 806.58)" gradientUnits="userSpaceOnUse"><stop offset="0" stop-color="#ffa2d6"/><stop offset="0.73" stop-color="#9dc6f8"/><stop offset="0.79" stop-color="#99c8fa"/><stop offset="1" stop-color="#5be0fc"/></linearGradient><linearGradient id="linear-gradient-2" x1="6176.06" y1="514.42" x2="6107" y2="618.31" xlink:href="#linear-gradient"/><linearGradient id="linear-gradient-3" x1="6141.41" y1="506.48" x2="6085.39" y2="590.77" xlink:href="#linear-gradient"/><linearGradient id="linear-gradient-4" x1="6184.11" y1="510.85" x2="6111.99" y2="619.35" xlink:href="#linear-gradient"/><linearGradient id="linear-gradient-5" x1="6139.31" y1="509.4" x2="6083.56" y2="593.27" xlink:href="#linear-gradient"/><linearGradient id="linear-gradient-6" x1="6184.07" y1="506.76" x2="6112.14" y2="614.98" xlink:href="#linear-gradient"/><linearGradient id="linear-gradient-7" x1="6136.08" y1="510.22" x2="6079.81" y2="594.88" xlink:href="#linear-gradient"/><linearGradient id="linear-gradient-8" x1="6151.32" y1="506.73" x2="6089.99" y2="599" xlink:href="#linear-gradient"/></defs><g id="图层_2" data-name="图层 2"><g id="OBJECTS"><path class="cls-1" d="M79.37,145.09l2.24-1.86c-.37-.43-36.89-45-42.14-97.62l-2.9.28C41.91,99.44,79,144.65,79.37,145.09Z"/><path class="cls-2" d="M16.92,67.8c11.77,7.34,26.45,5,26.45,5S39,58.64,27.21,51.3s-26.46-5-26.46-5S5.15,60.46,16.92,67.8Z"/><path class="cls-3" d="M45.33,46c-6,12.5-2,26.84-2,26.84s13.61-6,19.59-18.46,2.07-26.85,2.07-26.85S51.33,33.49,45.33,46Z"/><path class="cls-4" d="M26.77,101.22c13.19,4.3,26.88-1.46,26.88-1.46S46,87,32.78,82.75,5.9,84.21,5.9,84.21,13.58,96.93,26.77,101.22Z"/><path class="cls-5" d="M56.3,73c-6.25,12.36-2.65,26.77-2.65,26.77s13.74-5.65,20-18,2.64-26.8,2.64-26.8S62.55,60.59,56.3,73Z"/><path class="cls-6" d="M39.52,126.43c13.35,3.74,26.8-2.59,26.8-2.59s-8.21-12.39-21.57-16.13S18,110.3,18,110.3,26.15,122.69,39.52,126.43Z"/><path class="cls-7" d="M67.83,97c-5.72,12.63-1.51,26.88-1.51,26.88S79.81,117.61,85.54,105,87.05,78.1,87.05,78.1,73.56,84.32,67.83,97Z"/><path class="cls-8" d="M31.94.75S43.12,10.55,45,24.28s-6.18,26.21-6.18,26.21S27.68,40.69,25.78,27,31.94.75,31.94.75Z"/><line class="cls-9" x1="38.85" y1="50.49" x2="33.17" y2="7.66"/><path class="cls-9" d="M9.52,52.32c12.37,8,33.73,20.15,33.73,20.15S54.5,52.82,60.45,36.18"/><path class="cls-9" d="M71.58,64.88s-7.49,19.4-17.93,34.88c0,0-21.89-5.21-37.55-12.36"/><path class="cls-9" d="M82.1,89.08S75,109.36,66.32,123.84c-8.41-1-40.22-10.2-40.22-10.2"/></g></g></svg>