<svg xmlns="http://www.w3.org/2000/svg" xmlns:xlink="http://www.w3.org/1999/xlink" viewBox="0 0 114.48 114.67"><defs><style>.cls-1,.cls-2,.cls-3,.cls-4,.cls-5,.cls-6,.cls-7,.cls-8,.cls-9{stroke:#46247d;stroke-linejoin:round;stroke-width:1.5px;}.cls-1{fill:url(#linear-gradient);}.cls-2{fill:url(#linear-gradient-2);}.cls-3{fill:url(#linear-gradient-3);}.cls-4{fill:url(#linear-gradient-4);}.cls-5{fill:url(#linear-gradient-5);}.cls-6{fill:url(#linear-gradient-6);}.cls-7{fill:url(#linear-gradient-7);}.cls-8{fill:url(#linear-gradient-8);}.cls-9{fill:none;stroke-linecap:round;}</style><linearGradient id="linear-gradient" x1="10.53" y1="650.74" x2="10.53" y2="739.67" gradientTransform="matrix(0.98, 0.2, -0.2, 0.98, 169.98, -606.67)" gradientUnits="userSpaceOnUse"><stop offset="0" stop-color="#5be0fc"/><stop offset="1" stop-color="#7d4efc"/></linearGradient><linearGradient id="linear-gradient-2" x1="73.18" y1="630.44" x2="21.91" y2="731.32" xlink:href="#linear-gradient"/><linearGradient id="linear-gradient-3" x1="43.42" y1="615.31" x2="-7.85" y2="716.2" xlink:href="#linear-gradient"/><linearGradient id="linear-gradient-4" x1="73.94" y1="630.83" x2="22.68" y2="731.71" xlink:href="#linear-gradient"/><linearGradient id="linear-gradient-5" x1="40.27" y1="613.71" x2="-11" y2="714.6" xlink:href="#linear-gradient"/><linearGradient id="linear-gradient-6" x1="69.02" y1="628.33" x2="17.75" y2="729.21" xlink:href="#linear-gradient"/><linearGradient id="linear-gradient-7" x1="35.57" y1="611.32" x2="-15.7" y2="712.21" xlink:href="#linear-gradient"/><linearGradient id="linear-gradient-8" x1="53.93" y1="620.65" x2="2.66" y2="721.54" xlink:href="#linear-gradient"/></defs><g id="图层_2" data-name="图层 2"><g id="OBJECTS"><path class="cls-1" d="M2.06,113.92l-1.31-2.6c.51-.25,51.85-26.4,77.78-72.51l2.54,1.43C54.69,87.14,2.58,113.67,2.06,113.92Z"/><path class="cls-2" d="M90.28,68.19c-13.73,2-26.25-6-26.25-6S73.76,51,87.48,49s26.25,6,26.25,6S104,66.19,90.28,68.19Z"/><path class="cls-3" d="M73,36.82c.45,13.85-8.88,25.41-8.88,25.41S54,51.31,53.57,37.45,62.46,12,62.46,12,72.53,23,73,36.82Z"/><path class="cls-4" d="M67.84,94.85c-13.8-1.35-24-12.12-24-12.12s12.13-8.58,25.94-7.21,24,12.13,24,12.13S81.65,96.21,67.84,94.85Z"/><path class="cls-5" d="M52.13,57.14c.76,13.83-8.32,25.59-8.32,25.59S33.49,72,32.72,58.19s8.34-25.61,8.34-25.61S51.37,43.28,52.13,57.14Z"/><path class="cls-6" d="M46,112.82c-13.72-1.94-23.5-13.13-23.5-13.13s12.49-8,26.22-6.11,23.51,13.13,23.51,13.13S59.79,114.76,46,112.82Z"/><path class="cls-7" d="M31.94,74.47c.17,13.86-9.4,25.22-9.4,25.22s-9.86-11.12-10-25,9.4-25.23,9.4-25.23S31.76,60.59,31.94,74.47Z"/><path class="cls-8" d="M103.43.75S89.26,5.24,82,17.05s-4.86,26.49-4.86,26.49S91.3,39.05,98.56,27.23,103.43.75,103.43.75Z"/><line class="cls-9" x1="77.14" y1="43.54" x2="99.53" y2="6.59"/><path class="cls-9" d="M103.27,57c-14.55,2.39-39,4.91-39,4.91S61.86,39.39,63.1,21.76"/><path class="cls-9" d="M41.38,43.58s-.92,20.77,2.43,39.15c0,0,22.14,4,39.35,3.74"/><path class="cls-9" d="M22,61.52s-1.68,21.41.5,38.17c8.11,2.46,40.93,6.8,40.93,6.8"/></g></g></svg>